<svg width="800" height="400" viewBox="0 0 800 400" xmlns="http://www.w3.org/2000/svg">
  <!-- FOIL Industries Logo - Refined Sketch Style -->
  <!-- Hand-drawn industrial aesthetic with cleaner lines -->

  <defs>
    <!-- Pattern for wood grain/texture effect -->
    <pattern id="woodGrain" x="0" y="0" width="4" height="40" patternUnits="userSpaceOnUse">
      <line x1="1" y1="0" x2="1" y2="40" stroke="#2B2E33" stroke-width="0.5" opacity="0.3"/>
      <line x1="2" y1="5" x2="2" y2="35" stroke="#2B2E33" stroke-width="0.3" opacity="0.2"/>
    </pattern>

    <!-- Hatching pattern for depth -->
    <pattern id="hatch" x="0" y="0" width="8" height="8" patternUnits="userSpaceOnUse" patternTransform="rotate(45)">
      <line x1="0" y1="0" x2="0" y2="8" stroke="#2B2E33" stroke-width="0.5" opacity="0.15"/>
    </pattern>
  </defs>

  <!-- F - Vertical beam with horizontal supports -->
  <g id="letter-f">
    <!-- Main vertical beam -->
    <rect x="50" y="80" width="35" height="240" fill="url(#woodGrain)" stroke="#2B2E33" stroke-width="3"/>
    <path d="M 50 80 L 52 85 L 83 85 L 85 80 Z" fill="#1A1D21" opacity="0.3"/>

    <!-- Top horizontal beam -->
    <rect x="50" y="80" width="180" height="28" fill="url(#woodGrain)" stroke="#2B2E33" stroke-width="3"/>
    <path d="M 50 80 L 55 75 L 235 75 L 230 80 Z" fill="#35383D" opacity="0.4"/>

    <!-- Middle horizontal support -->
    <rect x="50" y="180" width="140" height="25" fill="url(#woodGrain)" stroke="#2B2E33" stroke-width="3"/>
    <path d="M 50 180 L 55 175 L 195 175 L 190 180 Z" fill="#35383D" opacity="0.4"/>

    <!-- Decorative bolts/rivets -->
    <circle cx="65" cy="93" r="3" fill="#4A5F7A"/>
    <circle cx="65" cy="192" r="3" fill="#4A5F7A"/>
    <circle cx="70" cy="305" r="3" fill="#4A5F7A"/>
  </g>

  <!-- O - Square frame structure -->
  <g id="letter-o">
    <!-- Outer frame -->
    <rect x="260" y="140" width="110" height="140" fill="none" stroke="#2B2E33" stroke-width="3"/>
    <rect x="263" y="143" width="104" height="134" fill="url(#hatch)"/>

    <!-- Inner opening -->
    <rect x="285" y="165" width="60" height="90" fill="#F5F5F5" stroke="#2B2E33" stroke-width="2.5"/>

    <!-- Cross supports (subtle) -->
    <line x1="260" y1="145" x2="285" y2="170" stroke="#2B2E33" stroke-width="1.5" opacity="0.3"/>
    <line x1="370" y1="145" x2="345" y2="170" stroke="#2B2E33" stroke-width="1.5" opacity="0.3"/>

    <!-- Corner details -->
    <circle cx="265" cy="145" r="4" fill="#2B2E33"/>
    <circle cx="365" cy="145" r="4" fill="#2B2E33"/>
    <circle cx="265" cy="275" r="4" fill="#2B2E33"/>
    <circle cx="365" cy="275" r="4" fill="#2B2E33"/>
  </g>

  <!-- I - Simple vertical column with texture -->
  <g id="letter-i">
    <rect x="410" y="140" width="40" height="180" fill="url(#woodGrain)" stroke="#2B2E33" stroke-width="3"/>

    <!-- Horizontal grain lines -->
    <line x1="410" y1="160" x2="450" y2="160" stroke="#2B2E33" stroke-width="0.5" opacity="0.3"/>
    <line x1="410" y1="180" x2="450" y2="180" stroke="#2B2E33" stroke-width="0.5" opacity="0.3"/>
    <line x1="410" y1="200" x2="450" y2="200" stroke="#2B2E33" stroke-width="0.5" opacity="0.3"/>
    <line x1="410" y1="220" x2="450" y2="220" stroke="#2B2E33" stroke-width="0.5" opacity="0.3"/>
    <line x1="410" y1="240" x2="450" y2="240" stroke="#2B2E33" stroke-width="0.5" opacity="0.3"/>
    <line x1="410" y1="260" x2="450" y2="260" stroke="#2B2E33" stroke-width="0.5" opacity="0.3"/>
    <line x1="410" y1="280" x2="450" y2="280" stroke="#2B2E33" stroke-width="0.5" opacity="0.3"/>
    <line x1="410" y1="300" x2="450" y2="300" stroke="#2B2E33" stroke-width="0.5" opacity="0.3"/>

    <!-- Top cap -->
    <rect x="405" y="135" width="50" height="10" fill="#2B2E33"/>

    <!-- Bottom cap -->
    <rect x="405" y="315" width="50" height="10" fill="#2B2E33"/>

    <!-- Rivets -->
    <circle cx="430" cy="150" r="3" fill="#4A5F7A"/>
    <circle cx="430" cy="310" r="3" fill="#4A5F7A"/>
  </g>

  <!-- L - Vertical post with horizontal base -->
  <g id="letter-l">
    <!-- Vertical beam -->
    <rect x="490" y="80" width="35" height="240" fill="url(#woodGrain)" stroke="#2B2E33" stroke-width="3"/>
    <path d="M 490 80 L 492 85 L 523 85 L 525 80 Z" fill="#1A1D21" opacity="0.3"/>

    <!-- Bottom horizontal beam -->
    <rect x="490" y="292" width="180" height="28" fill="url(#woodGrain)" stroke="#2B2E33" stroke-width="3"/>
    <path d="M 490 320 L 495 325 L 675 325 L 670 320 Z" fill="#1A1D21" opacity="0.5"/>

    <!-- Decorative bolts/rivets -->
    <circle cx="505" cy="95" r="3" fill="#4A5F7A"/>
    <circle cx="510" cy="305" r="3" fill="#4A5F7A"/>
    <circle cx="655" cy="305" r="3" fill="#4A5F7A"/>
  </g>

  <!-- Hanging pulley detail (top right from original sketch) -->
  <g id="pulley">
    <line x1="230" y1="75" x2="230" y2="65" stroke="#2B2E33" stroke-width="2"/>
    <circle cx="230" cy="60" r="8" fill="none" stroke="#2B2E33" stroke-width="2.5"/>
    <circle cx="230" cy="60" r="3" fill="#D4A017"/>
  </g>

  <!-- Subtle shadow underneath (optional) -->
  <ellipse cx="370" cy="335" rx="280" ry="8" fill="#2B2E33" opacity="0.1"/>
</svg>
